<?xml version="1.0" standalone="no"?>
<!DOCTYPE svg PUBLIC "-//W3C//DTD SVG 20010904//EN"
 "http://www.w3.org/TR/2001/REC-SVG-20010904/DTD/svg10.dtd">
<svg version="1.0" xmlns="http://www.w3.org/2000/svg"
 width="300.000000pt" height="300.000000pt" viewBox="0 0 300.000000 300.000000"
 preserveAspectRatio="xMidYMid meet">

<g transform="translate(0.000000,300.000000) scale(0.100000,-0.100000)"
fill="#000000" stroke="none">
<path d="M877 2089 c-61 -14 -95 -36 -216 -137 -143 -119 -153 -140 -159 -302
-5 -144 8 -209 54 -260 19 -21 48 -43 64 -50 17 -7 30 -15 30 -19 0 -3 -25
-26 -56 -51 -92 -73 -94 -78 -94 -195 0 -158 -25 -147 320 -143 340 4 319 -2
492 143 159 132 163 141 163 345 0 126 -3 161 -17 185 -25 46 -70 84 -122 104
l-47 18 48 39 c97 79 93 70 93 192 0 93 -3 111 -18 125 -16 15 -48 17 -258 16
-131 -1 -256 -5 -277 -10z m514 -9 c17 -10 19 -22 19 -125 0 -63 -1 -116 -2
-117 -2 -1 -91 -4 -198 -7 l-195 -6 -3 -31 c-2 -17 3 -35 10 -41 7 -5 71 -18
143 -27 132 -17 201 -39 244 -79 43 -40 51 -76 51 -234 -1 -199 -20 -242 -135
-295 -48 -22 -62 -23 -325 -26 -168 -1 -281 1 -290 7 -12 8 -15 34 -15 126 0
92 3 118 15 125 8 5 105 10 215 10 213 0 225 3 225 47 0 31 -21 38 -159 57
-147 21 -183 32 -230 73 -56 47 -66 85 -66 243 1 111 4 141 19 170 38 73 83
106 176 126 69 16 473 18 501 4z"/>
<path d="M910 1942 c-51 -25 -70 -71 -69 -162 2 -143 9 -149 219 -190 235 -46
240 -50 240 -188 0 -85 -11 -115 -53 -146 -26 -19 -46 -21 -230 -26 l-202 -6
200 -2 c183 -2 203 0 232 18 56 34 68 63 68 166 -1 101 -13 133 -62 152 -15 7
-102 27 -193 46 -203 42 -200 40 -200 172 0 100 11 132 54 157 13 7 89 14 201
18 l180 5 -175 2 c-149 2 -180 -1 -210 -16z"/>
<path d="M1689 2030 c-46 -39 -94 -82 -106 -96 l-23 -25 0 -467 c0 -407 2
-470 16 -490 l15 -22 349 0 349 0 76 62 c43 34 92 76 111 93 l34 32 0 104 c0
148 -1 149 -143 149 l-112 1 25 22 c14 12 46 39 70 59 l45 37 3 90 c3 66 0 98
-11 120 -15 30 -15 30 31 68 95 77 92 70 92 185 0 78 -4 109 -16 126 l-15 22
-353 0 -352 0 -85 -70z m782 50 c17 -10 19 -22 19 -118 0 -71 -4 -112 -12
-120 -9 -9 -70 -12 -215 -12 l-203 0 0 -55 0 -55 148 0 c102 0 152 -4 160 -12
8 -8 12 -48 12 -115 0 -91 -2 -103 -19 -113 -11 -5 -83 -10 -160 -10 l-141 0
0 -55 0 -55 196 0 c115 0 203 -4 215 -10 17 -10 19 -22 19 -123 0 -75 -4 -117
-12 -125 -15 -15 -685 -17 -708 -2 -13 8 -15 74 -18 479 -3 461 -2 471 18 491
19 19 32 20 351 20 208 0 337 -4 350 -10z"/>
<path d="M1900 1590 l0 -370 238 2 237 3 -227 2 -228 3 0 180 0 180 173 3 172
3 -172 2 -173 2 0 175 0 175 228 3 227 2 -237 3 -238 2 0 -370z"/>
<path d="M2625 1948 c-3 -12 -14 -117 -17 -178 -1 -14 4 -68 11 -120 11 -88 8
-497 -5 -570 -2 -14 9 -1 26 31 44 85 51 156 46 467 -4 274 -9 317 -41 349 -8
8 -13 19 -10 24 4 5 4 9 0 9 -3 0 -7 -6 -10 -12z"/>
<path d="M2538 982 c-26 -20 -61 -58 -78 -85 l-30 -47 28 14 c26 13 61 53 111
124 12 17 21 32 19 32 -2 0 -24 -17 -50 -38z"/>
</g>
</svg>
